Adsworth-8PTG1XT1.ufo
<glyph name="C" format="2">
  <advance width="1943.0"/>
  <outline>
    <contour>
      <point x="1041.0" y="399.0" type="line" smooth="yes"/>
      <point x="1159.0" y="399.0"/>
      <point x="1289.0" y="470.0"/>
      <point x="1297.0" y="594.0" type="qcurve" smooth="yes"/>
      <point x="1298.0" y="662.0" type="line"/>
      <point x="1916.0" y="662.0" type="line"/>
      <point x="1912.0" y="530.0" type="line" smooth="yes"/>
      <point x="1900.0" y="265.0"/>
      <point x="1452.0" y="-35.0"/>
      <point x="1061.0" y="-35.0" type="qcurve" smooth="yes"/>
      <point x="1051.0" y="-35.0" type="line" smooth="yes"/>
      <point x="683.0" y="-35.0"/>
      <point x="102.0" y="360.0"/>
      <point x="102.0" y="741.0" type="qcurve" smooth="yes"/>
      <point x="102.0" y="751.0" type="line" smooth="yes"/>
      <point x="102.0" y="1126.0"/>
      <point x="656.0" y="1530.0"/>
      <point x="1032.0" y="1530.0" type="qcurve" smooth="yes"/>
      <point x="1044.0" y="1530.0" type="line" smooth="yes"/>
      <point x="1450.0" y="1530.0"/>
      <point x="1893.0" y="1235.0"/>
      <point x="1912.0" y="971.0" type="qcurve" smooth="yes"/>
      <point x="1921.0" y="827.0" type="line"/>
      <point x="1293.0" y="827.0" type="line"/>
      <point x="1293.0" y="919.0" type="line" smooth="yes"/>
      <point x="1286.0" y="1018.0"/>
      <point x="1132.0" y="1085.0"/>
      <point x="1035.0" y="1085.0" type="qcurve" smooth="yes"/>
      <point x="1036.0" y="1085.0" type="line" smooth="yes"/>
      <point x="953.0" y="1085.0"/>
      <point x="784.0" y="997.0"/>
      <point x="784.0" y="857.0" type="qcurve" smooth="yes"/>
      <point x="784.0" y="627.0" type="line" smooth="yes"/>
      <point x="784.0" y="476.0"/>
      <point x="958.0" y="399.0"/>
      <point x="1042.0" y="399.0" type="qcurve" smooth="yes"/>
    </contour>
  </outline>
</glyph>
<glyph name="D" format="2">
  <advance width="1979.0"/>
  <outline>
    <contour>
      <point x="168.0" y="0.0" type="line"/>
      <point x="168.0" y="1500.0" type="line"/>
      <point x="789.0" y="1500.0" type="line"/>
      <point x="789.0" y="0.0" type="line"/>
    </contour>
    <contour>
      <point x="1062.0" y="415.0" type="line" smooth="yes"/>
      <point x="1152.0" y="415.0"/>
      <point x="1215.0" y="582.0"/>
      <point x="1215.0" y="747.0" type="qcurve" smooth="yes"/>
      <point x="1215.0" y="739.0" type="line" smooth="yes"/>
      <point x="1215.0" y="904.0"/>
      <point x="1150.0" y="1072.0"/>
      <point x="1060.0" y="1078.0" type="qcurve" smooth="yes"/>
      <point x="565.0" y="1078.0" type="line"/>
      <point x="565.0" y="1500.0" type="line"/>
      <point x="1135.0" y="1500.0" type="line" smooth="yes"/>
      <point x="1450.0" y="1500.0"/>
      <point x="1877.0" y="1095.0"/>
      <point x="1877.0" y="752.0" type="qcurve" smooth="yes"/>
      <point x="1877.0" y="741.0" type="line" smooth="yes"/>
      <point x="1877.0" y="401.0"/>
      <point x="1445.0" y="0.0"/>
      <point x="1131.0" y="0.0" type="qcurve" smooth="yes"/>
      <point x="565.0" y="0.0" type="line"/>
      <point x="565.0" y="415.0" type="line"/>
    </contour>
  </outline>
</glyph>
<glyph name="E" format="2">
  <advance width="1414.0"/>
  <outline>
    <contour>
      <point x="168.0" y="0.0" type="line"/>
      <point x="168.0" y="1500.0" type="line"/>
      <point x="804.0" y="1500.0" type="line"/>
      <point x="804.0" y="0.0" type="line"/>
    </contour>
    <contour>
      <point x="1294.0" y="562.0" type="line"/>
      <point x="464.0" y="562.0" type="line"/>
      <point x="464.0" y="1012.0" type="line"/>
      <point x="1294.0" y="1012.0" type="line"/>
    </contour>
    <contour>
      <point x="1454.0" y="1050.0" type="line"/>
      <point x="464.0" y="1050.0" type="line"/>
      <point x="464.0" y="1500.0" type="line"/>
      <point x="1454.0" y="1500.0" type="line"/>
    </contour>
    <contour>
      <point x="1454.0" y="0.0" type="line"/>
      <point x="464.0" y="0.0" type="line"/>
      <point x="464.0" y="450.0" type="line"/>
      <point x="1454.0" y="450.0" type="line"/>
    </contour>
  </outline>
</glyph>
<glyph name="G" format="2">
  <advance width="2025.0"/>
  <outline>
    <contour>
      <point x="1077.0" y="336.0" type="line" smooth="yes"/>
      <point x="1225.0" y="336.0"/>
      <point x="1388.0" y="420.0"/>
      <point x="1393.0" y="488.0" type="qcurve" smooth="yes"/>
      <point x="1392.0" y="443.0" type="line"/>
      <point x="1084.0" y="442.0" type="line"/>
      <point x="1084.0" y="851.0" type="line"/>
      <point x="1995.0" y="852.0" type="line"/>
      <point x="1992.0" y="628.0" type="line" smooth="yes"/>
      <point x="1986.0" y="298.0"/>
      <point x="1506.0" y="-31.0"/>
      <point x="1090.0" y="-31.0" type="qcurve" smooth="yes"/>
      <point x="1077.0" y="-31.0" type="line" smooth="yes"/>
      <point x="615.0" y="-31.0"/>
      <point x="102.0" y="379.0"/>
      <point x="102.0" y="741.0" type="qcurve" smooth="yes"/>
      <point x="102.0" y="754.0" type="line" smooth="yes"/>
      <point x="102.0" y="1126.0"/>
      <point x="647.0" y="1530.0"/>
      <point x="1068.0" y="1530.0" type="qcurve" smooth="yes"/>
      <point x="1082.0" y="1530.0" type="line" smooth="yes"/>
      <point x="1478.0" y="1530.0"/>
      <point x="1922.0" y="1251.0"/>
      <point x="1944.0" y="1018.0" type="qcurve" smooth="yes"/>
      <point x="1949.0" y="935.0" type="line"/>
      <point x="1385.0" y="935.0" type="line"/>
      <point x="1383.0" y="975.0" type="line" smooth="yes"/>
      <point x="1383.0" y="1047.0"/>
      <point x="1226.0" y="1130.0"/>
      <point x="1103.0" y="1130.0" type="qcurve" smooth="yes"/>
      <point x="1098.0" y="1130.0" type="line" smooth="yes"/>
      <point x="943.0" y="1130.0"/>
      <point x="765.0" y="988.0"/>
      <point x="765.0" y="861.0" type="qcurve" smooth="yes"/>
      <point x="765.0" y="644.0" type="line" smooth="yes"/>
      <point x="765.0" y="486.0"/>
      <point x="914.0" y="336.0"/>
      <point x="1075.0" y="336.0" type="qcurve" smooth="yes"/>
    </contour>
  </outline>
</glyph>
<glyph name="I" format="2">
  <advance width="842.0"/>
  <outline>
    <contour>
      <point x="109.0" y="0.0" type="line"/>
      <point x="109.0" y="1500.0" type="line"/>
      <point x="733.0" y="1500.0" type="line"/>
      <point x="733.0" y="0.0" type="line"/>
    </contour>
    <contour>
      <point x="452.0" y="0.0" type="line"/>
      <point x="372.0" y="0.0" type="line"/>
      <point x="372.0" y="435.0" type="line"/>
      <point x="452.0" y="435.0" type="line"/>
    </contour>
    <contour>
      <point x="452.0" y="1065.0" type="line"/>
      <point x="372.0" y="1065.0" type="line"/>
      <point x="372.0" y="1500.0" type="line"/>
      <point x="452.0" y="1500.0" type="line"/>
    </contour>
  </outline>
</glyph>
<glyph name="J" format="2">
  <advance width="1455.0"/>
  <outline>
    <contour>
      <point x="1327.0" y="500.0" type="line" smooth="yes"/>
      <point x="1327.0" y="184.0"/>
      <point x="921.0" y="-32.0"/>
      <point x="643.0" y="-32.0" type="qcurve" smooth="yes"/>
      <point x="621.0" y="-32.0" type="line" smooth="yes"/>
      <point x="303.0" y="-32.0"/>
      <point x="-12.0" y="186.0"/>
      <point x="-12.0" y="369.0" type="qcurve" smooth="yes"/>
      <point x="-12.0" y="574.0" type="line"/>
      <point x="507.0" y="574.0" type="line"/>
      <point x="507.0" y="421.0" type="line" smooth="yes"/>
      <point x="507.0" y="414.0"/>
      <point x="562.0" y="369.0"/>
      <point x="583.0" y="369.0" type="qcurve" smooth="yes"/>
      <point x="585.0" y="369.0" type="line" smooth="yes"/>
      <point x="637.0" y="369.0"/>
      <point x="706.0" y="366.0"/>
      <point x="706.0" y="405.0" type="qcurve" smooth="yes"/>
      <point x="706.0" y="1500.0" type="line"/>
      <point x="1327.0" y="1500.0" type="line"/>
    </contour>
  </outline>
</glyph>
<glyph name="L" format="2">
  <advance width="1388.0"/>
  <outline>
    <contour>
      <point x="167.0" y="0.0" type="line"/>
      <point x="167.0" y="1500.0" type="line"/>
      <point x="807.0" y="1500.0" type="line"/>
      <point x="807.0" y="0.0" type="line"/>
    </contour>
    <contour>
      <point x="1354.0" y="0.0" type="line"/>
      <point x="410.0" y="0.0" type="line"/>
      <point x="410.0" y="450.0" type="line"/>
      <point x="1354.0" y="450.0" type="line"/>
    </contour>
  </outline>
</glyph>
<glyph name="N" format="2">
  <advance width="2133.0"/>
  <outline>
    <contour>
      <point x="168.0" y="0.0" type="line"/>
      <point x="168.0" y="1500.0" type="line"/>
      <point x="714.0" y="1498.0" type="line"/>
      <point x="1419.0" y="945.0" type="line"/>
      <point x="1419.0" y="1500.0" type="line"/>
      <point x="1965.0" y="1500.0" type="line"/>
      <point x="1965.0" y="0.0" type="line"/>
      <point x="1394.0" y="0.0" type="line"/>
      <point x="1379.0" y="67.0" type="line"/>
      <point x="694.0" y="598.0" type="line"/>
      <point x="694.0" y="0.0" type="line"/>
    </contour>
  </outline>
</glyph>
<glyph name="P" format="2">
  <advance width="1551.0"/>
  <outline>
    <contour>
      <point x="167.0" y="0.0" type="line"/>
      <point x="167.0" y="1500.0" type="line"/>
      <point x="805.0" y="1500.0" type="line"/>
      <point x="805.0" y="0.0" type="line"/>
    </contour>
    <contour>
      <point x="1056.0" y="315.0" type="qcurve" smooth="yes"/>
      <point x="668.0" y="315.0" type="line"/>
      <point x="668.0" y="722.0" type="line"/>
      <point x="807.0" y="722.0" type="line" smooth="yes"/>
      <point x="860.0" y="722.0"/>
      <point x="938.0" y="769.0"/>
      <point x="938.0" y="900.0" type="qcurve" smooth="yes"/>
      <point x="938.0" y="909.0" type="line" smooth="yes"/>
      <point x="938.0" y="1021.0"/>
      <point x="855.0" y="1085.0"/>
      <point x="818.0" y="1085.0" type="qcurve" smooth="yes"/>
      <point x="668.0" y="1085.0" type="line"/>
      <point x="668.0" y="1500.0" type="line"/>
      <point x="1030.0" y="1500.0" type="line" smooth="yes"/>
      <point x="1261.0" y="1500.0"/>
      <point x="1572.0" y="1211.0"/>
      <point x="1572.0" y="940.0" type="qcurve" smooth="yes"/>
      <point x="1572.0" y="930.0" type="line" smooth="yes"/>
      <point x="1572.0" y="605.0"/>
      <point x="1255.0" y="313.0"/>
    </contour>
  </outline>
</glyph>
<glyph name="Q" format="2">
  <advance width="2162.0"/>
  <outline>
    <contour>
      <point x="1064.0" y="-2.0" type="line" smooth="yes"/>
      <point x="610.0" y="-2.0"/>
      <point x="102.0" y="371.0"/>
      <point x="102.0" y="754.0" type="qcurve" smooth="yes"/>
      <point x="102.0" y="752.0" type="line" smooth="yes"/>
      <point x="102.0" y="1120.0"/>
      <point x="623.0" y="1528.0"/>
      <point x="1071.0" y="1528.0" type="qcurve" smooth="yes"/>
      <point x="1082.0" y="1528.0" type="line" smooth="yes"/>
      <point x="1518.0" y="1528.0"/>
      <point x="2060.0" y="1127.0"/>
      <point x="2060.0" y="753.0" type="qcurve" smooth="yes"/>
      <point x="2060.0" y="758.0" type="line" smooth="yes"/>
      <point x="2060.0" y="398.0"/>
      <point x="1491.0" y="-2.0"/>
      <point x="1075.0" y="-2.0" type="qcurve" smooth="yes"/>
    </contour>
    <contour>
      <point x="1081.0" y="372.0" type="line" smooth="yes"/>
      <point x="1202.0" y="372.0"/>
      <point x="1383.0" y="443.0"/>
      <point x="1383.0" y="652.0" type="qcurve" smooth="yes"/>
      <point x="1383.0" y="811.0" type="line" smooth="yes"/>
      <point x="1383.0" y="1018.0"/>
      <point x="1202.0" y="1114.0"/>
      <point x="1081.0" y="1114.0" type="qcurve" smooth="yes"/>
      <point x="1078.0" y="1114.0" type="line" smooth="yes"/>
      <point x="940.0" y="1114.0"/>
      <point x="779.0" y="1014.0"/>
      <point x="779.0" y="808.0" type="qcurve" smooth="yes"/>
      <point x="779.0" y="648.0" type="line" smooth="yes"/>
      <point x="779.0" y="444.0"/>
      <point x="918.0" y="372.0"/>
      <point x="1078.0" y="372.0" type="qcurve" smooth="yes"/>
    </contour>
    <contour>
      <point x="1123.0" y="279.0" type="line"/>
      <point x="2186.0" y="263.0" type="line"/>
      <point x="2186.0" y="-162.0" type="line"/>
      <point x="1124.0" y="-21.0" type="line"/>
    </contour>
  </outline>
</glyph>
<glyph name="ampersand" format="2">
  <advance width="1785.0"/>
  <outline>
    <contour>
      <point x="979.0" y="834.0" type="line"/>
      <point x="1791.0" y="1141.0" type="line"/>
      <point x="1896.0" y="843.0" type="line"/>
      <point x="1071.0" y="571.0" type="line"/>
    </contour>
    <contour>
      <point x="898.0" y="617.0" type="line"/>
      <point x="831.0" y="617.0" type="line" smooth="yes"/>
      <point x="718.0" y="617.0"/>
      <point x="607.0" y="553.0"/>
      <point x="607.0" y="510.0" type="qcurve" smooth="yes"/>
      <point x="607.0" y="494.0" type="line" smooth="yes"/>
      <point x="607.0" y="430.0"/>
      <point x="698.0" y="349.0"/>
      <point x="850.0" y="349.0" type="qcurve" smooth="yes"/>
      <point x="892.0" y="349.0" type="line" smooth="yes"/>
      <point x="1016.0" y="349.0"/>
      <point x="1166.0" y="450.0"/>
      <point x="1166.0" y="517.0" type="qcurve" smooth="yes"/>
      <point x="1166.0" y="527.0" type="line" smooth="yes"/>
      <point x="1166.0" y="573.0"/>
      <point x="1144.0" y="685.0"/>
      <point x="1144.0" y="702.0" type="qcurve"/>
      <point x="1575.0" y="791.0" type="line"/>
      <point x="1597.0" y="764.0"/>
      <point x="1665.0" y="558.0"/>
      <point x="1665.0" y="484.0" type="qcurve" smooth="yes"/>
      <point x="1665.0" y="479.0" type="line" smooth="yes"/>
      <point x="1665.0" y="312.0"/>
      <point x="1304.0" y="-36.0"/>
      <point x="882.0" y="-36.0" type="qcurve" smooth="yes"/>
      <point x="860.0" y="-36.0" type="line" smooth="yes"/>
      <point x="420.0" y="-36.0"/>
      <point x="38.0" y="222.0"/>
      <point x="38.0" y="405.0" type="qcurve" smooth="yes"/>
      <point x="38.0" y="424.0" type="line" smooth="yes"/>
      <point x="38.0" y="575.0"/>
      <point x="236.0" y="772.0"/>
      <point x="400.0" y="806.0" type="qcurve"/>
      <point x="312.0" y="855.0"/>
      <point x="207.0" y="1013.0"/>
      <point x="207.0" y="1112.0" type="qcurve" smooth="yes"/>
      <point x="207.0" y="1138.0" type="line" smooth="yes"/>
      <point x="207.0" y="1305.0"/>
      <point x="487.0" y="1523.0"/>
      <point x="677.0" y="1523.0" type="qcurve" smooth="yes"/>
      <point x="683.0" y="1523.0" type="line" smooth="yes"/>
      <point x="887.0" y="1523.0"/>
      <point x="1184.0" y="1326.0"/>
      <point x="1175.0" y="1149.0" type="qcurve" smooth="yes"/>
      <point x="1175.0" y="1083.0" type="line"/>
      <point x="761.0" y="1083.0" type="line"/>
      <point x="761.0" y="1109.0" type="line" smooth="yes"/>
      <point x="761.0" y="1109.0"/>
      <point x="759.0" y="1111.0"/>
      <point x="742.0" y="1111.0" type="qcurve" smooth="yes"/>
      <point x="741.0" y="1111.0" type="line" smooth="yes"/>
      <point x="724.0" y="1111.0"/>
      <point x="697.0" y="1090.0"/>
      <point x="697.0" y="1069.0" type="qcurve" smooth="yes"/>
      <point x="697.0" y="1046.0" type="line" smooth="yes"/>
      <point x="697.0" y="1013.0"/>
      <point x="728.0" y="990.0"/>
      <point x="745.0" y="982.0" type="qcurve" smooth="yes"/>
      <point x="874.0" y="982.0" type="line"/>
    </contour>
  </outline>
</glyph>
<glyph name="asciitilde" format="2">
  <advance width="2420.0"/>
  <outline>
    <contour>
      <point x="1269.0" y="996.0" type="qcurve" smooth="yes"/>
      <point x="1174.0" y="1044.0"/>
      <point x="1008.0" y="1115.0"/>
      <point x="852.0" y="1115.0" type="qcurve" smooth="yes"/>
      <point x="675.0" y="1115.0"/>
      <point x="366.0" y="866.0"/>
      <point x="311.0" y="691.0" type="qcurve"/>
      <point x="594.0" y="491.0" type="line"/>
      <point x="626.0" y="560.0"/>
      <point x="777.0" y="628.0"/>
      <point x="882.0" y="628.0" type="qcurve"/>
      <point x="986.0" y="628.0"/>
      <point x="1096.0" y="590.0"/>
      <point x="1157.0" y="560.0" type="qcurve" smooth="yes"/>
      <point x="1243.0" y="516.0"/>
      <point x="1425.0" y="436.0"/>
      <point x="1591.0" y="436.0" type="qcurve" smooth="yes"/>
      <point x="1796.0" y="436.0"/>
      <point x="2108.0" y="673.0"/>
      <point x="2153.0" y="833.0" type="qcurve"/>
      <point x="1866.0" y="1062.0" type="line"/>
      <point x="1830.0" y="999.0"/>
      <point x="1661.0" y="916.0"/>
      <point x="1558.0" y="916.0" type="qcurve" smooth="yes"/>
      <point x="1455.0" y="916.0"/>
      <point x="1341.0" y="960.0"/>
    </contour>
  </outline>
</glyph>
<glyph name="b" format="2">
  <advance width="1853.0"/>
  <outline>
    <contour>
      <point x="155.0" y="2.0" type="line"/>
      <point x="155.0" y="1540.0" type="line"/>
      <point x="715.0" y="1540.0" type="line"/>
      <point x="705.0" y="2.0" type="line"/>
    </contour>
    <contour>
      <point x="608.0" y="811.0" type="line" smooth="yes"/>
      <point x="608.0" y="882.0"/>
      <point x="889.0" y="1082.0"/>
      <point x="1141.0" y="1082.0" type="qcurve" smooth="yes"/>
      <point x="1156.0" y="1082.0" type="line" smooth="yes"/>
      <point x="1445.0" y="1082.0"/>
      <point x="1770.0" y="751.0"/>
      <point x="1770.0" y="530.0" type="qcurve" smooth="yes"/>
      <point x="1770.0" y="524.0" type="line" smooth="yes"/>
      <point x="1770.0" y="293.0"/>
      <point x="1445.0" y="-23.0"/>
      <point x="1161.0" y="-23.0" type="qcurve" smooth="yes"/>
      <point x="1153.0" y="-23.0" type="line" smooth="yes"/>
      <point x="889.0" y="-23.0"/>
      <point x="608.0" y="170.0"/>
      <point x="608.0" y="201.0" type="qcurve" smooth="yes"/>
    </contour>
    <contour>
      <point x="733.0" y="622.0" type="qcurve" smooth="yes"/>
      <point x="733.0" y="429.0" type="line" smooth="yes"/>
      <point x="733.0" y="352.0"/>
      <point x="880.0" y="292.0"/>
      <point x="960.0" y="292.0" type="qcurve" smooth="yes"/>
      <point x="971.0" y="292.0" type="line" smooth="yes"/>
      <point x="1085.0" y="292.0"/>
      <point x="1220.0" y="356.0"/>
      <point x="1220.0" y="439.0" type="qcurve" smooth="yes"/>
      <point x="1220.0" y="621.0" type="line" smooth="yes"/>
      <point x="1220.0" y="709.0"/>
      <point x="1066.0" y="754.0"/>
      <point x="953.0" y="754.0" type="qcurve" smooth="yes"/>
      <point x="944.0" y="754.0" type="line" smooth="yes"/>
      <point x="862.0" y="754.0"/>
      <point x="733.0" y="666.0"/>
    </contour>
  </outline>
</glyph>
<glyph name="bar" format="2">
  <advance width="1130.0"/>
  <outline>
    <contour>
      <point x="310.0" y="-500.0" type="line"/>
      <point x="310.0" y="1500.0" type="line"/>
      <point x="820.0" y="1500.0" type="line"/>
      <point x="820.0" y="-500.0" type="line"/>
    </contour>
  </outline>
</glyph>
<glyph name="comma" format="2">
  <advance width="1007.0"/>
  <outline>
    <contour>
      <point x="67.0" y="-126.0" type="line"/>
      <point x="291.0" y="335.0" type="line" smooth="yes"/>
      <point x="320.0" y="408.0"/>
      <point x="449.0" y="538.0"/>
      <point x="541.0" y="538.0" type="qcurve" smooth="yes"/>
      <point x="553.0" y="538.0" type="line" smooth="yes"/>
      <point x="658.0" y="538.0"/>
      <point x="801.0" y="419.0"/>
      <point x="801.0" y="339.0" type="qcurve" smooth="yes"/>
      <point x="801.0" y="322.0" type="line" smooth="yes"/>
      <point x="801.0" y="253.0"/>
      <point x="402.0" y="-142.0"/>
      <point x="263.0" y="-249.0" type="qcurve"/>
    </contour>
  </outline>
</glyph>
<glyph name="d" format="2">
  <advance width="1836.0"/>
  <outline>
    <contour>
      <point x="1681.0" y="0.0" type="line"/>
      <point x="1141.0" y="0.0" type="line"/>
      <point x="1121.0" y="1540.0" type="line"/>
      <point x="1681.0" y="1540.0" type="line"/>
    </contour>
    <contour>
      <point x="1216.0" y="762.0" type="qcurve" smooth="yes"/>
      <point x="1216.0" y="258.0" type="line" smooth="yes"/>
      <point x="1216.0" y="137.0"/>
      <point x="903.0" y="-25.0"/>
      <point x="669.0" y="-25.0" type="qcurve" smooth="yes"/>
      <point x="661.0" y="-25.0" type="line" smooth="yes"/>
      <point x="375.0" y="-25.0"/>
      <point x="44.0" y="284.0"/>
      <point x="44.0" y="515.0" type="qcurve" smooth="yes"/>
      <point x="44.0" y="528.0" type="line" smooth="yes"/>
      <point x="44.0" y="762.0"/>
      <point x="390.0" y="1083.0"/>
      <point x="675.0" y="1083.0" type="qcurve" smooth="yes"/>
      <point x="684.0" y="1083.0" type="line" smooth="yes"/>
      <point x="949.0" y="1083.0"/>
      <point x="1216.0" y="915.0"/>
    </contour>
    <contour>
      <point x="1093.0" y="617.0" type="line" smooth="yes"/>
      <point x="1093.0" y="697.0"/>
      <point x="953.0" y="755.0"/>
      <point x="844.0" y="755.0" type="qcurve" smooth="yes"/>
      <point x="838.0" y="755.0" type="line" smooth="yes"/>
      <point x="731.0" y="755.0"/>
      <point x="597.0" y="693.0"/>
      <point x="597.0" y="609.0" type="qcurve" smooth="yes"/>
      <point x="597.0" y="422.0" type="line" smooth="yes"/>
      <point x="597.0" y="343.0"/>
      <point x="733.0" y="287.0"/>
      <point x="838.0" y="287.0" type="qcurve" smooth="yes"/>
      <point x="844.0" y="287.0" type="line" smooth="yes"/>
      <point x="946.0" y="287.0"/>
      <point x="1093.0" y="331.0"/>
      <point x="1093.0" y="415.0" type="qcurve" smooth="yes"/>
    </contour>
  </outline>
</glyph>
<glyph name="g" format="2">
  <advance width="1828.0"/>
  <outline>
    <contour>
      <point x="1205.0" y="825.0" type="qcurve" smooth="yes"/>
      <point x="1205.0" y="222.0" type="line" smooth="yes"/>
      <point x="1205.0" y="147.0"/>
      <point x="934.0" y="-35.0"/>
      <point x="719.0" y="-35.0" type="qcurve" smooth="yes"/>
      <point x="669.0" y="-35.0" type="line" smooth="yes"/>
      <point x="358.0" y="-35.0"/>
      <point x="54.0" y="247.0"/>
      <point x="54.0" y="526.0" type="qcurve" smooth="yes"/>
      <point x="54.0" y="551.0" type="line" smooth="yes"/>
      <point x="54.0" y="792.0"/>
      <point x="399.0" y="1083.0"/>
      <point x="683.0" y="1083.0" type="qcurve" smooth="yes"/>
      <point x="733.0" y="1083.0" type="line" smooth="yes"/>
      <point x="951.0" y="1083.0"/>
      <point x="1205.0" y="921.0"/>
    </contour>
    <contour>
      <point x="1106.0" y="617.0" type="line" smooth="yes"/>
      <point x="1106.0" y="707.0"/>
      <point x="967.0" y="755.0"/>
      <point x="859.0" y="755.0" type="qcurve" smooth="yes"/>
      <point x="853.0" y="755.0" type="line" smooth="yes"/>
      <point x="748.0" y="755.0"/>
      <point x="615.0" y="693.0"/>
      <point x="615.0" y="617.0" type="qcurve" smooth="yes"/>
      <point x="615.0" y="425.0" type="line" smooth="yes"/>
      <point x="615.0" y="333.0"/>
      <point x="750.0" y="277.0"/>
      <point x="853.0" y="277.0" type="qcurve" smooth="yes"/>
      <point x="859.0" y="277.0" type="line" smooth="yes"/>
      <point x="959.0" y="277.0"/>
      <point x="1106.0" y="331.0"/>
      <point x="1106.0" y="415.0" type="qcurve" smooth="yes"/>
    </contour>
    <contour>
      <point x="106.0" y="-73.0" type="line"/>
      <point x="180.0" y="-88.0"/>
      <point x="388.0" y="-126.0"/>
      <point x="589.0" y="-126.0" type="qcurve" smooth="yes"/>
      <point x="870.0" y="-126.0"/>
      <point x="1136.0" y="69.0"/>
      <point x="1136.0" y="258.0" type="qcurve" smooth="yes"/>
      <point x="1136.0" y="1040.0" type="line"/>
      <point x="1673.0" y="1040.0" type="line"/>
      <point x="1673.0" y="347.0" type="line" smooth="yes"/>
      <point x="1673.0" y="-193.0"/>
      <point x="1046.0" y="-490.0"/>
      <point x="671.0" y="-490.0" type="qcurve" smooth="yes"/>
      <point x="385.0" y="-490.0"/>
      <point x="152.0" y="-453.0"/>
      <point x="68.0" y="-437.0" type="qcurve"/>
    </contour>
  </outline>
</glyph>
<glyph name="grave" format="2">
  <advance width="1200.0"/>
  <outline>
    <contour>
      <point x="715.0" y="1533.0" type="line"/>
      <point x="1208.0" y="1105.0" type="line"/>
      <point x="556.0" y="1105.0" type="line"/>
      <point x="-16.0" y="1533.0" type="line"/>
    </contour>
  </outline>
</glyph>
<glyph name="h" format="2">
  <advance width="1650.0"/>
  <outline>
    <contour>
      <point x="155.0" y="0.0" type="line"/>
      <point x="155.0" y="1540.0" type="line"/>
      <point x="705.0" y="1540.0" type="line"/>
      <point x="715.0" y="0.0" type="line"/>
    </contour>
    <contour>
      <point x="463.0" y="500.0" type="line"/>
      <point x="470.0" y="691.0"/>
      <point x="766.0" y="1080.0"/>
      <point x="1022.0" y="1080.0" type="qcurve" smooth="yes"/>
      <point x="1265.0" y="1080.0"/>
      <point x="1534.0" y="816.0"/>
      <point x="1534.0" y="605.0" type="qcurve" smooth="yes"/>
      <point x="1534.0" y="0.0" type="line"/>
      <point x="973.0" y="0.0" type="line"/>
      <point x="973.0" y="577.0" type="line" smooth="yes"/>
      <point x="973.0" y="631.0"/>
      <point x="873.0" y="662.0"/>
      <point x="814.0" y="662.0" type="qcurve" smooth="yes"/>
      <point x="749.0" y="662.0"/>
      <point x="567.0" y="511.0"/>
      <point x="503.0" y="379.0" type="qcurve"/>
    </contour>
  </outline>
</glyph>
<glyph name="i" format="2">
  <advance width="733.0"/>
  <outline>
    <contour>
      <point x="56.0" y="0.0" type="line"/>
      <point x="56.0" y="1040.0" type="line"/>
      <point x="610.0" y="1040.0" type="line"/>
      <point x="610.0" y="0.0" type="line"/>
    </contour>
    <contour>
      <point x="328.0" y="1038.0" type="line" smooth="yes"/>
      <point x="471.0" y="1038.0"/>
      <point x="621.0" y="1193.0"/>
      <point x="621.0" y="1315.0" type="qcurve" smooth="yes"/>
      <point x="621.0" y="1332.0" type="line" smooth="yes"/>
      <point x="621.0" y="1453.0"/>
      <point x="474.0" y="1611.0"/>
      <point x="328.0" y="1611.0" type="qcurve" smooth="yes"/>
      <point x="322.0" y="1611.0" type="line" smooth="yes"/>
      <point x="187.0" y="1611.0"/>
      <point x="38.0" y="1453.0"/>
      <point x="38.0" y="1332.0" type="qcurve" smooth="yes"/>
      <point x="38.0" y="1315.0" type="line" smooth="yes"/>
      <point x="38.0" y="1190.0"/>
      <point x="183.0" y="1038.0"/>
      <point x="322.0" y="1038.0" type="qcurve" smooth="yes"/>
    </contour>
    <contour>
      <point x="519.0" y="640.0" type="line"/>
      <point x="67.0" y="620.0" type="line"/>
      <point x="67.0" y="1020.0" type="line"/>
      <point x="519.0" y="1040.0" type="line"/>
    </contour>
  </outline>
</glyph>
<glyph name="less" format="2">
  <advance width="1920.0"/>
  <outline>
    <contour>
      <point x="198.0" y="523.0" type="line"/>
      <point x="198.0" y="993.0" type="line"/>
      <point x="1658.0" y="1496.0" type="line"/>
      <point x="1663.0" y="1005.0" type="line"/>
      <point x="920.0" y="784.0" type="line"/>
      <point x="1663.0" y="553.0" type="line"/>
      <point x="1658.0" y="20.0" type="line"/>
    </contour>
  </outline>
</glyph>
<glyph name="question" format="2">
  <advance width="1378.0"/>
  <outline>
    <contour>
      <point x="581.0" y="-52.0" type="line" smooth="yes"/>
      <point x="729.0" y="-52.0"/>
      <point x="913.0" y="116.0"/>
      <point x="913.0" y="240.0" type="qcurve" smooth="yes"/>
      <point x="913.0" y="259.0" type="line" smooth="yes"/>
      <point x="913.0" y="382.0"/>
      <point x="732.0" y="554.0"/>
      <point x="581.0" y="554.0" type="qcurve" smooth="yes"/>
      <point x="575.0" y="554.0" type="line" smooth="yes"/>
      <point x="435.0" y="554.0"/>
      <point x="263.0" y="382.0"/>
      <point x="263.0" y="259.0" type="qcurve" smooth="yes"/>
      <point x="263.0" y="240.0" type="line" smooth="yes"/>
      <point x="263.0" y="113.0"/>
      <point x="432.0" y="-52.0"/>
      <point x="575.0" y="-52.0" type="qcurve" smooth="yes"/>
    </contour>
    <contour>
      <point x="829.0" y="570.0" type="line"/>
      <point x="287.0" y="570.0" type="line"/>
      <point x="287.0" y="861.0" type="line"/>
      <point x="589.0" y="835.0"/>
      <point x="810.0" y="956.0"/>
      <point x="810.0" y="1022.0" type="qcurve" smooth="yes"/>
      <point x="810.0" y="1065.0" type="line" smooth="yes"/>
      <point x="810.0" y="1099.0"/>
      <point x="735.0" y="1116.0"/>
      <point x="643.0" y="1116.0" type="qcurve" smooth="yes"/>
      <point x="639.0" y="1116.0" type="line" smooth="yes"/>
      <point x="557.0" y="1116.0"/>
      <point x="463.0" y="1094.0"/>
      <point x="464.0" y="1085.0" type="qcurve" smooth="yes"/>
      <point x="465.0" y="969.0" type="line"/>
      <point x="-82.0" y="974.0" type="line"/>
      <point x="-82.0" y="1125.0" type="line" smooth="yes"/>
      <point x="-82.0" y="1304.0"/>
      <point x="338.0" y="1522.0"/>
      <point x="676.0" y="1522.0" type="qcurve" smooth="yes"/>
      <point x="685.0" y="1522.0" type="line" smooth="yes"/>
      <point x="1008.0" y="1523.0"/>
      <point x="1424.0" y="1295.0"/>
      <point x="1424.0" y="1036.0" type="qcurve" smooth="yes"/>
      <point x="1424.0" y="1009.0" type="line" smooth="yes"/>
      <point x="1424.0" y="769.0"/>
      <point x="1138.0" y="473.0"/>
      <point x="829.0" y="466.0" type="qcurve"/>
    </contour>
  </outline>
</glyph>
<glyph name="quotedbl" format="2">
  <advance width="1354.0"/>
  <outline>
    <contour>
      <point x="74.0" y="762.0" type="line"/>
      <point x="74.0" y="1500.0" type="line"/>
      <point x="647.0" y="1500.0" type="line"/>
      <point x="647.0" y="762.0" type="line"/>
    </contour>
    <contour>
      <point x="707.0" y="762.0" type="line"/>
      <point x="707.0" y="1500.0" type="line"/>
      <point x="1280.0" y="1500.0" type="line"/>
      <point x="1280.0" y="762.0" type="line"/>
    </contour>
  </outline>
</glyph>
<glyph name="slash" format="2">
  <advance width="1060.0"/>
  <outline>
    <contour>
      <point x="-100.0" y="0.0" type="line"/>
      <point x="620.0" y="1500.0" type="line"/>
      <point x="1160.0" y="1500.0" type="line"/>
      <point x="440.0" y="0.0" type="line"/>
    </contour>
  </outline>
</glyph>
<glyph name="three" format="2">
  <advance width="1408.0"/>
  <outline>
    <contour>
      <point x="687.0" y="547.0" type="qcurve" smooth="yes"/>
      <point x="358.0" y="548.0" type="line"/>
      <point x="358.0" y="934.0" type="line"/>
      <point x="672.0" y="937.0" type="line" smooth="yes"/>
      <point x="753.0" y="937.0"/>
      <point x="819.0" y="956.0"/>
      <point x="819.0" y="1018.0" type="qcurve" smooth="yes"/>
      <point x="819.0" y="1055.0" type="line" smooth="yes"/>
      <point x="819.0" y="1085.0"/>
      <point x="781.0" y="1119.0"/>
      <point x="697.0" y="1119.0" type="qcurve"/>
      <point x="717.0" y="1119.0" type="line"/>
      <point x="617.0" y="1119.0"/>
      <point x="558.0" y="1062.0"/>
      <point x="556.0" y="1030.0" type="qcurve" smooth="yes"/>
      <point x="556.0" y="981.0" type="line"/>
      <point x="47.0" y="1005.0" type="line"/>
      <point x="52.0" y="1125.0" type="line" smooth="yes"/>
      <point x="58.0" y="1302.0"/>
      <point x="383.0" y="1527.0"/>
      <point x="673.0" y="1527.0" type="qcurve"/>
      <point x="691.0" y="1527.0" type="line"/>
      <point x="1002.0" y="1527.0"/>
      <point x="1359.0" y="1319.0"/>
      <point x="1359.0" y="1174.0" type="qcurve" smooth="yes"/>
      <point x="1359.0" y="1127.0" type="line" smooth="yes"/>
      <point x="1359.0" y="1003.0"/>
      <point x="1146.0" y="827.0"/>
      <point x="1060.0" y="814.0" type="qcurve"/>
      <point x="1170.0" y="787.0"/>
      <point x="1421.0" y="608.0"/>
      <point x="1421.0" y="443.0" type="qcurve" smooth="yes"/>
      <point x="1421.0" y="433.0" type="line" smooth="yes"/>
      <point x="1421.0" y="234.0"/>
      <point x="1031.0" y="-40.0"/>
      <point x="718.0" y="-40.0" type="qcurve"/>
      <point x="709.0" y="-40.0" type="line"/>
      <point x="394.0" y="-40.0"/>
      <point x="30.0" y="211.0"/>
      <point x="18.0" y="377.0" type="qcurve" smooth="yes"/>
      <point x="14.0" y="545.0" type="line"/>
      <point x="514.0" y="545.0" type="line"/>
      <point x="515.0" y="442.0" type="line" smooth="yes"/>
      <point x="522.0" y="380.0"/>
      <point x="580.0" y="304.0"/>
      <point x="679.0" y="304.0" type="qcurve"/>
      <point x="670.0" y="304.0" type="line"/>
      <point x="784.0" y="304.0"/>
      <point x="841.0" y="376.0"/>
      <point x="841.0" y="455.0" type="qcurve" smooth="yes"/>
      <point x="841.0" y="433.0" type="line" smooth="yes"/>
      <point x="841.0" y="516.0"/>
      <point x="763.0" y="543.0"/>
    </contour>
  </outline>
</glyph>
<glyph name="z" format="2">
  <advance width="1337.0"/>
  <outline>
    <contour>
      <point x="1339.0" y="1.0" type="line"/>
      <point x="18.0" y="1.0" type="line"/>
      <point x="13.0" y="337.0" type="line"/>
      <point x="644.0" y="661.0" type="line"/>
      <point x="19.0" y="661.0" type="line"/>
      <point x="19.0" y="1041.0" type="line"/>
      <point x="1318.0" y="1041.0" type="line"/>
      <point x="1318.0" y="726.0" type="line"/>
      <point x="653.0" y="377.0" type="line"/>
      <point x="1339.0" y="377.0" type="line"/>
    </contour>
  </outline>
</glyph>
